<svg width="173" height="48" viewBox="0 0 173 48" fill="none" xmlns="http://www.w3.org/2000/svg">
<path opacity="0.9" d="M5.01425 34.48L5.39825 23.152H1.11025C0.768917 23.152 0.59825 23.024 0.59825 22.768C0.59825 22 0.960917 21.1253 1.68625 20.144C2.41158 19.12 3.20092 18.608 4.05425 18.608H5.39825C5.31292 15.28 5.22758 12.8907 5.14225 11.44C4.97158 8.83733 4.54492 6.832 3.86225 5.424L3.54225 4.784C3.37158 4.57066 3.28625 4.31466 3.28625 4.016C3.28625 3.71733 3.52092 3.46133 3.99025 3.248C4.45958 3.03466 5.14225 2.77866 6.03825 2.48C6.97692 2.18133 8.93958 1.79733 11.9263 1.328C14.9129 0.815998 18.1556 0.559998 21.6543 0.559998C25.1956 0.559998 27.1156 0.815998 27.4143 1.328C27.7556 1.84 27.9263 2.65066 27.9263 3.76C27.9263 4.82666 27.7769 5.36 27.4783 5.36C27.4356 5.36 27.2863 5.33866 27.0303 5.296C26.3476 5.12533 25.3023 5.04 23.8943 5.04C22.4863 5.04 20.9716 5.168 19.3503 5.424C17.7289 5.68 16.4916 5.936 15.6383 6.192L14.4223 6.64C14.0809 6.72533 13.8249 7.024 13.6543 7.536C13.3129 10.0533 13.1423 13.744 13.1423 18.608H23.5103C23.8943 18.608 24.0863 18.736 24.0863 18.992C24.0863 19.76 23.7449 20.656 23.0623 21.68C22.3796 22.704 21.6116 23.216 20.7583 23.216L13.1423 23.152L13.5903 42.352C13.5903 43.2907 13.4409 43.9733 13.1423 44.4C12.3316 45.4667 10.9449 46.256 8.98225 46.768C7.06225 47.3227 5.46225 47.6 4.18225 47.6C3.84092 47.6 3.67025 47.3867 3.67025 46.96C3.67025 46.7467 3.69158 46.576 3.73425 46.448C4.24625 45.7227 4.67292 41.7333 5.01425 34.48ZM47.2023 26.8L47.0743 34.992C47.0743 40.6667 47.6929 44.08 48.9303 45.232C49.1009 45.4027 49.1863 45.5947 49.1863 45.808C49.1863 46.448 47.7996 46.768 45.0263 46.768C42.2956 46.768 40.8449 45.9573 40.6743 44.336C40.6316 43.952 40.6103 43.1627 40.6103 41.968L40.8663 31.728C40.8663 31.4293 40.6956 31.28 40.3542 31.28C38.3063 31.28 36.3863 31.856 34.5943 33.008C32.8023 34.16 31.9062 35.632 31.9062 37.424C31.9062 38.3627 32.1623 39.152 32.6743 39.792C33.1863 40.432 33.8049 40.752 34.5303 40.752C35.2983 40.752 35.9169 40.6027 36.3863 40.304C36.8983 40.0053 37.1969 39.8347 37.2823 39.792C38.0076 39.8773 38.3703 40.6453 38.3703 42.096C38.3703 43.504 37.7089 44.656 36.3863 45.552C35.0636 46.4053 33.6769 46.832 32.2263 46.832C30.7756 46.832 29.5169 46.576 28.4503 46.064C27.4263 45.552 26.6796 44.976 26.2103 44.336C25.7409 43.696 25.3569 42.9707 25.0583 42.16C24.7596 41.1787 24.6103 40.3253 24.6103 39.6C24.6103 36.6133 25.5489 34.224 27.4263 32.432C29.3036 30.64 31.7143 29.36 34.6583 28.592C38.5409 27.824 40.5676 27.12 40.7383 26.48C40.8663 26.0107 40.9303 25.2213 40.9303 24.112C40.9303 21.8507 39.7783 20.72 37.4743 20.72C36.4929 20.72 35.6183 21.04 34.8503 21.68C34.0823 22.2773 33.6983 23.0453 33.6983 23.984L34.0823 25.52C33.9969 26.2453 33.2289 26.672 31.7783 26.8L31.0743 26.864C29.7943 26.864 28.7703 26.544 28.0023 25.904C27.2769 25.264 26.9143 24.4107 26.9143 23.344C26.9143 22.6613 27.1276 21.9147 27.5543 21.104C28.0236 20.2507 28.5996 19.568 29.2823 19.056C29.9649 18.544 31.0103 18.096 32.4183 17.712C33.8689 17.2853 35.2556 17.072 36.5783 17.072C37.9009 17.072 38.9249 17.1147 39.6503 17.2C40.3756 17.2853 41.3569 17.4987 42.5943 17.84C43.8743 18.1387 44.9196 18.736 45.7303 19.632C46.5836 20.528 47.0316 21.488 47.0743 22.512C47.1596 23.4933 47.2023 24.9227 47.2023 26.8ZM65.4763 18.352C67.3109 17.456 69.1243 17.008 70.9163 17.008C72.7083 17.008 73.6043 18.864 73.6043 22.576C73.6043 25.3067 73.0923 28.08 72.0683 30.896C71.0869 33.712 69.8496 36.1867 68.3563 38.32C65.2843 42.8 62.5109 45.7867 60.0363 47.28C59.4389 47.6213 58.9909 47.792 58.6923 47.792C58.3936 47.792 58.0736 47.472 57.7323 46.832C57.4336 46.192 56.9429 44.784 56.2603 42.608C55.6203 40.432 55.0869 38.4907 54.6603 36.784L54.0843 34.16C53.2309 30.4053 52.3989 27.4187 51.5883 25.2C50.7776 22.9387 50.1803 21.6373 49.7963 21.296L49.1562 20.72C48.7296 20.5067 48.5162 20.2507 48.5162 19.952L48.8362 19.376C49.3909 18.864 50.3083 18.352 51.5883 17.84C52.9109 17.2853 54.3616 17.008 55.9403 17.008C56.6656 17.008 57.1136 17.4133 57.2843 18.224C57.9243 20.1867 58.4789 22.4907 58.9483 25.136C59.4176 27.7813 60.0363 30.768 60.8043 34.096C61.6149 37.424 62.2763 39.1093 62.7883 39.152C63.0443 39.152 63.3216 38.96 63.6203 38.576C63.9616 38.192 64.3456 37.68 64.7723 37.04C65.2416 36.4 65.7963 35.1627 66.4363 33.328C67.1189 31.4933 67.4603 29.936 67.4603 28.656C67.4603 27.3333 67.3963 26.3307 67.2683 25.648C67.1829 24.9227 66.8203 24.0907 66.1803 23.152C65.5403 22.2133 64.8149 21.68 64.0043 21.552C63.1936 21.3813 62.7883 21.104 62.7883 20.72C62.7883 20.0373 63.6843 19.248 65.4763 18.352ZM82.0983 21.872C80.9889 21.9147 80.1783 21.9573 79.6663 22C79.1969 22 78.9623 21.872 78.9623 21.616C78.9623 21.36 79.0903 21.104 79.3463 20.848C82.0769 18.3307 86.6849 17.072 93.1703 17.072C95.3889 17.072 97.1383 17.264 98.4183 17.648L99.0583 17.84C99.5703 18.0533 99.8263 18.288 99.8263 18.544C99.8263 18.7573 99.6769 18.928 99.3783 19.056C98.2263 19.3973 97.1169 19.952 96.0503 20.72C94.9836 21.4453 94.4503 21.9573 94.4503 22.256L94.8343 22.704C96.1996 23.472 97.2449 24.688 97.9703 26.352C98.7383 28.016 99.1649 29.488 99.2503 30.768L99.3783 32.752C99.3783 36.976 98.2049 40.4533 95.8583 43.184C93.5116 45.9147 90.3116 47.28 86.2583 47.28C84.2103 47.28 82.4396 46.9173 80.9463 46.192C79.4529 45.4667 78.3436 44.656 77.6183 43.76C76.9356 42.8213 76.3809 41.776 75.9543 40.624C75.4423 39.0453 75.1863 37.424 75.1863 35.76C75.1863 34.0533 75.4636 32.3467 76.0182 30.64C76.6156 28.9333 77.2769 27.6747 78.0023 26.864C78.7703 26.0533 79.6236 25.392 80.5623 24.88C81.7569 24.24 82.7169 23.92 83.4423 23.92C84.1676 23.92 84.5303 24.0693 84.5303 24.368L84.1463 25.008C83.2076 26.1173 82.5249 27.568 82.0983 29.36C81.7143 31.152 81.5223 32.752 81.5223 34.16C81.5223 35.5253 81.6929 36.8907 82.0343 38.256C82.3756 39.6213 82.7596 40.6453 83.1863 41.328C83.6129 41.968 84.1036 42.4587 84.6583 42.8C85.4689 43.312 86.3223 43.568 87.2183 43.568C88.1143 43.568 88.9889 43.2267 89.8423 42.544C90.6956 41.8187 91.3143 40.88 91.6983 39.728C92.4663 37.5947 92.8503 35.3973 92.8503 33.136C92.8503 29.552 91.9329 26.7787 90.0983 24.816C88.3063 22.8533 85.6396 21.872 82.0983 21.872ZM121.596 28.848L121.852 31.088C121.852 31.8987 121.084 32.304 119.548 32.304C116.434 32.304 114.876 31.1307 114.876 28.784C114.876 28.2293 115.026 27.4613 115.324 26.48C115.623 25.4987 115.772 24.6453 115.772 23.92C115.772 23.1947 115.559 22.576 115.132 22.064C114.706 21.5093 114.087 21.232 113.276 21.232C112.466 21.232 111.762 21.5307 111.164 22.128C110.61 22.6827 110.268 23.2587 110.14 23.856L109.884 24.752C109.628 26.0747 109.5 28.2933 109.5 31.408C109.5 34.48 109.543 36.912 109.628 38.704C109.714 40.4533 109.799 41.6693 109.884 42.352C109.97 42.992 110.012 43.376 110.012 43.504C110.012 44.5707 109.351 45.424 108.028 46.064C106.706 46.7467 105.383 47.088 104.06 47.088C102.738 47.088 102.076 46.8107 102.076 46.256L102.396 44.272C102.994 40.56 103.292 35.7173 103.292 29.744C103.292 23.7707 103.079 19.7173 102.652 17.584C102.652 17.072 103.1 16.816 103.996 16.816C106.3 16.816 107.836 17.6053 108.604 19.184C108.647 19.3547 108.711 19.44 108.796 19.44C108.924 19.44 109.223 19.248 109.692 18.864C111.1 17.712 112.764 17.136 114.684 17.136C115.879 17.136 117.074 17.3707 118.268 17.84C120.7 18.8213 121.916 20.8693 121.916 23.984L121.596 28.848ZM131.418 11.76L129.882 11.696C128.73 11.696 127.984 11.9733 127.642 12.528C127.557 12.656 127.45 12.72 127.322 12.72C126.768 12.72 126.49 11.7813 126.49 9.904C126.49 7.984 126.768 6.768 127.322 6.256C127.92 5.744 128.922 5.488 130.33 5.488C131.781 5.488 132.762 5.744 133.274 6.256C133.786 6.72533 134.042 7.536 134.042 8.688C134.042 9.84 133.85 10.6507 133.466 11.12C133.082 11.5467 132.4 11.76 131.418 11.76ZM126.298 44.08L127.002 29.168C127.002 25.6267 126.597 23.216 125.786 21.936C125.53 21.5093 125.232 21.1893 124.89 20.976C124.634 20.8907 124.506 20.72 124.506 20.464C124.506 19.696 125.594 18.9493 127.77 18.224C129.946 17.4987 131.525 17.136 132.506 17.136C133.53 17.136 134.064 17.392 134.106 17.904C134.106 18.7573 133.978 21.1893 133.722 25.2C133.509 29.168 133.402 33.3493 133.402 37.744C133.402 42.1387 133.658 44.8693 134.17 45.936C134.298 46.1493 134.362 46.3627 134.362 46.576C134.362 47.1307 133.552 47.408 131.93 47.408C130.309 47.408 128.645 46.9813 126.938 46.128C126.512 45.9147 126.298 45.232 126.298 44.08ZM137.304 21.04L137.496 18.48C137.538 18.096 137.837 17.904 138.392 17.904H140.632L140.376 12.784V12.528C140.376 11.5467 141.122 10.608 142.616 9.712C144.109 8.816 145.474 8.368 146.712 8.368C147.096 8.368 147.288 8.53867 147.288 8.88V8.944C147.117 10.096 146.946 13.0613 146.776 17.84C148.653 17.84 149.848 17.7973 150.36 17.712C150.872 17.6267 151.149 17.584 151.192 17.584C151.49 17.584 151.64 17.84 151.64 18.352C151.64 18.864 151.405 19.5253 150.936 20.336C150.466 21.104 149.954 21.5093 149.4 21.552H146.712C146.669 23.0027 146.648 25.456 146.648 28.912C146.648 32.3253 146.669 35.1413 146.712 37.36C146.797 39.5787 146.882 41.264 146.968 42.416C147.053 43.5253 147.138 44.4213 147.224 45.104C147.352 45.7867 147.437 46.2773 147.48 46.576C147.565 46.8747 147.608 47.0667 147.608 47.152C147.608 47.5787 147.33 47.8133 146.776 47.856C145.112 47.856 143.448 47.6213 141.784 47.152C140.162 46.6827 139.352 45.872 139.352 44.72C140.248 37.552 140.696 29.8507 140.696 21.616C139.544 21.616 138.669 21.6587 138.072 21.744H138.008C137.624 21.744 137.389 21.5093 137.304 21.04ZM158.031 29.744L158.095 31.344C158.095 31.6 158.266 31.728 158.607 31.728C159.973 31.6 161.167 31.2587 162.191 30.704C163.215 30.1067 163.983 29.4453 164.495 28.72C165.519 27.1413 166.074 25.776 166.159 24.624L166.223 23.856C166.223 21.552 165.306 20.4 163.471 20.4C162.106 20.4 160.997 20.9973 160.143 22.192C158.735 24.0693 158.031 26.5867 158.031 29.744ZM171.983 38.256C171.983 39.8773 171.642 41.3067 170.959 42.544C170.319 43.7387 169.573 44.6347 168.719 45.232C167.909 45.7867 166.949 46.2347 165.839 46.576C164.431 47.0027 163.087 47.216 161.807 47.216C158.223 47.216 155.578 45.872 153.871 43.184C152.165 40.496 151.311 37.0827 151.311 32.944C151.311 28.7627 152.357 25.0507 154.447 21.808C156.581 18.5653 159.759 16.944 163.983 16.944C167.823 16.944 170.426 18.288 171.791 20.976C172.346 22 172.623 22.9813 172.623 23.92C172.623 24.816 172.581 25.5413 172.495 26.096C172.41 26.608 172.111 27.3973 171.599 28.464C171.087 29.5307 170.405 30.4907 169.551 31.344C168.698 32.1973 167.354 33.008 165.519 33.776C163.685 34.544 161.53 35.056 159.055 35.312C158.714 35.312 158.543 35.4613 158.543 35.76C158.543 36.144 158.671 36.72 158.927 37.488C159.226 38.2133 159.546 38.832 159.887 39.344C160.826 40.5387 162.213 41.136 164.047 41.136C165.882 41.136 167.439 40.5387 168.719 39.344C169.402 38.704 169.957 37.9147 170.383 36.976C170.554 36.6347 170.767 36.464 171.023 36.464C171.322 36.464 171.557 36.6987 171.727 37.168C171.898 37.6373 171.983 38 171.983 38.256Z" fill="white"/>
</svg>
