<svg width="512" height="512" viewBox="0 0 512 512" fill="none" xmlns="http://www.w3.org/2000/svg">
<g clip-path="url(#clip0_568_2)">
<path d="M505.749 475.584L378.411 348.246C413.112 305.805 430.173 251.65 426.066 196.983C421.959 142.316 396.997 91.3182 356.343 54.5393C315.69 17.7605 262.455 -1.98607 207.651 -0.615789C152.847 0.75449 100.666 23.1367 61.9011 61.9013C23.1365 100.666 0.754246 152.847 -0.616033 207.651C-1.98631 262.456 17.7602 315.69 54.5391 356.343C91.318 396.997 142.315 421.959 196.983 426.066C251.65 430.174 305.805 413.112 348.245 378.411L475.584 505.75C479.607 509.636 484.996 511.786 490.59 511.737C496.183 511.689 501.534 509.445 505.489 505.49C509.445 501.534 511.688 496.184 511.737 490.59C511.786 484.997 509.635 479.608 505.749 475.584ZM213.333 384C179.579 384 146.582 373.991 118.516 355.238C90.45 336.485 68.5752 309.83 55.6579 278.645C42.7405 247.46 39.3608 213.144 45.946 180.038C52.5312 146.932 68.7856 116.522 92.6538 92.654C116.522 68.7858 146.932 52.5314 180.038 45.9462C213.144 39.361 247.459 42.7408 278.645 55.6581C309.83 68.5755 336.484 90.4502 355.237 118.516C373.991 146.582 384 179.579 384 213.334C383.949 258.582 365.952 301.962 333.957 333.957C301.962 365.952 258.581 383.949 213.333 384Z" fill="#FAF0E6"/>
</g>
<defs>
<clipPath id="clip0_568_2">
<rect width="512" height="512" fill="white"/>
</clipPath>
</defs>
</svg>
