<svg width="74" height="74" viewBox="0 0 74 74" fill="none" xmlns="http://www.w3.org/2000/svg">
<path d="M37.0007 51.3534L51.6673 36.6867L37.0007 22.02L31.8673 27.1534L37.734 33.02H22.334V40.3534H37.734L31.8673 46.22L37.0007 51.3534ZM37.0007 73.3534C31.9284 73.3534 27.1618 72.3909 22.7007 70.4659C18.2395 68.5408 14.359 65.9284 11.059 62.6284C7.75898 59.3284 5.14648 55.4478 3.22148 50.9867C1.29648 46.5256 0.333984 41.7589 0.333984 36.6867C0.333984 31.6145 1.29648 26.8478 3.22148 22.3867C5.14648 17.9256 7.75898 14.045 11.059 10.745C14.359 7.44502 18.2395 4.83252 22.7007 2.90752C27.1618 0.98252 31.9284 0.0200195 37.0007 0.0200195C42.0729 0.0200195 46.8395 0.98252 51.3007 2.90752C55.7618 4.83252 59.6423 7.44502 62.9423 10.745C66.2423 14.045 68.8548 17.9256 70.7798 22.3867C72.7048 26.8478 73.6673 31.6145 73.6673 36.6867C73.6673 41.7589 72.7048 46.5256 70.7798 50.9867C68.8548 55.4478 66.2423 59.3284 62.9423 62.6284C59.6423 65.9284 55.7618 68.5408 51.3007 70.4659C46.8395 72.3909 42.0729 73.3534 37.0007 73.3534ZM37.0007 66.02C45.1895 66.02 52.1257 63.1784 57.809 57.495C63.4923 51.8117 66.334 44.8756 66.334 36.6867C66.334 28.4978 63.4923 21.5617 57.809 15.8784C52.1257 10.195 45.1895 7.35335 37.0007 7.35335C28.8118 7.35335 21.8757 10.195 16.1923 15.8784C10.509 21.5617 7.66732 28.4978 7.66732 36.6867C7.66732 44.8756 10.509 51.8117 16.1923 57.495C21.8757 63.1784 28.8118 66.02 37.0007 66.02Z" fill="#F8BBD0"/>
</svg>
